<?xml version="1.0" encoding="UTF-8"?>
<svg id="Calque_1" data-name="Calque 1" xmlns="http://www.w3.org/2000/svg" viewBox="0 0 347.27 159.59">
  <defs>
    <style>
      .cls-1 {
        fill: #1d1d1b;
      }
    </style>
  </defs>
  <path class="cls-1" d="M335.34,142.95H11.93V16.64h323.41v126.31ZM22.93,131.95h301.41V27.64H22.93v104.31Z"/>
  <g>
    <g>
      <path class="cls-1" d="M41.58,67.76v-12.97h-2.85v-5.2h2.85v-4.85h5.8v4.85h3.3v5.2h-3.3v12.97h-5.8Z"/>
      <path class="cls-1" d="M53.67,67.76v-25.66h5.8v8.4c.63-.44,1.34-.79,2.13-1.04.78-.25,1.63-.37,2.55-.37,1.34,0,2.51.31,3.53.91,1.02.61,1.82,1.48,2.39,2.62s.86,2.5.86,4.09v11.04h-5.8v-10.26c0-.94-.22-1.69-.65-2.27s-1.12-.86-2.06-.86-1.66.27-2.18.81-.77,1.31-.77,2.32v10.26h-5.8,0Z"/>
      <path class="cls-1" d="M90.19,66.92c-1.62.68-3.22,1.1-4.82,1.27-1.59.16-3.1.08-4.52-.26-1.42-.34-2.68-.92-3.78-1.74s-1.96-1.86-2.58-3.13-.93-2.73-.93-4.39c0-1.38.23-2.65.69-3.81s1.11-2.18,1.95-3.06,1.84-1.56,2.99-2.04,2.4-.72,3.76-.72c1.22,0,2.32.2,3.3.6.98.4,1.84.96,2.57,1.67.73.72,1.31,1.56,1.76,2.55.44.98.73,2.06.84,3.23.12,1.17.05,2.41-.21,3.73h-11.6c.44.89,1.19,1.52,2.23,1.9s2.28.49,3.73.35c1.44-.14,2.98-.52,4.62-1.12v4.99-.02ZM82.8,54.23c-.68,0-1.31.19-1.88.56-.57.38-1.01.95-1.32,1.72h6.36c-.28-.8-.7-1.38-1.25-1.74s-1.19-.54-1.92-.54h0Z"/>
    </g>
    <g>
      <path class="cls-1" d="M42,116.52v-45.92h16.88c1.31,4.59,2.6,9.24,3.88,13.94,1.28,4.7,2.55,9.35,3.81,13.94,1.26-4.59,2.53-9.24,3.81-13.94,1.28-4.7,2.55-9.35,3.81-13.94h16.68c.04,7.56.09,15.22.13,22.96s.09,15.4.14,22.96h-11.41v-31.13c-1.35,5.13-2.72,10.32-4.12,15.56s-2.77,10.43-4.12,15.56h-10.26c-1.35-5.04-2.7-10.14-4.05-15.29s-2.7-10.25-4.05-15.29v30.59h-11.14.01Z"/>
      <path class="cls-1" d="M122.55,116.52v-2.03c-1.13.95-2.4,1.68-3.82,2.19-1.42.52-2.94.78-4.56.78-2.3,0-4.46-.44-6.48-1.32-2.03-.88-3.82-2.14-5.37-3.78s-2.77-3.59-3.65-5.84c-.88-2.25-1.32-4.75-1.32-7.5s.44-5.31,1.32-7.56,2.09-4.17,3.65-5.77c1.55-1.6,3.34-2.84,5.37-3.71,2.03-.88,4.16-1.32,6.41-1.32,1.62,0,3.15.26,4.59.78,1.44.52,2.72,1.23,3.85,2.13v-1.96h11.14v34.91h-11.14,0ZM115.67,107.61c2.16,0,3.89-.79,5.2-2.36,1.31-1.58,1.96-3.65,1.96-6.21s-.65-4.63-1.96-6.18-3.04-2.33-5.2-2.33-3.95.77-5.23,2.3c-1.28,1.53-1.92,3.6-1.92,6.21s.64,4.69,1.92,6.25c1.28,1.55,3.03,2.33,5.23,2.33h0Z"/>
      <path class="cls-1" d="M141.12,116.52v-34.91h11.14v1.89c1.39-.99,2.97-1.73,4.73-2.23s3.67-.63,5.74-.41v10.94c-3.56-.49-6.19-.19-7.9.91-1.71,1.1-2.57,2.89-2.57,5.37v18.43h-11.14Z"/>
      <path class="cls-1" d="M165.56,99.03c0-3.42.7-6.43,2.09-9.01,1.39-2.59,3.33-4.67,5.81-6.25s5.36-2.53,8.64-2.87c3.29-.34,6.8.06,10.53,1.18v10.4c-2.61-1.26-5.11-1.85-7.5-1.76s-4.34.82-5.87,2.19-2.3,3.41-2.3,6.11.77,4.74,2.3,6.11,3.49,2.09,5.87,2.16c2.39.07,4.88-.51,7.5-1.72v10.4c-3.74,1.12-7.25,1.52-10.53,1.18-3.29-.34-6.17-1.29-8.64-2.87-2.48-1.58-4.41-3.66-5.81-6.25s-2.09-5.59-2.09-9.01h0Z"/>
      <path class="cls-1" d="M229.31,114.9c-3.11,1.31-6.19,2.12-9.25,2.43s-5.95.15-8.68-.51c-2.72-.65-5.14-1.77-7.26-3.34-2.12-1.58-3.77-3.58-4.96-6.01s-1.79-5.24-1.79-8.44c0-2.66.44-5.1,1.32-7.33s2.13-4.19,3.75-5.87c1.62-1.69,3.53-2.99,5.74-3.92,2.21-.92,4.61-1.38,7.22-1.38,2.34,0,4.46.38,6.35,1.15,1.89.77,3.53,1.83,4.93,3.21,1.39,1.37,2.52,3,3.38,4.9.85,1.89,1.39,3.96,1.62,6.21.22,2.25.09,4.64-.41,7.16h-22.28c.86,1.71,2.28,2.93,4.29,3.65,2,.72,4.39.95,7.16.68s5.73-.99,8.88-2.16v9.59-.02ZM215.13,90.52c-1.31,0-2.51.36-3.61,1.08s-1.95,1.82-2.53,3.31h12.22c-.54-1.53-1.34-2.64-2.4-3.34s-2.29-1.05-3.68-1.05h0Z"/>
      <path class="cls-1" d="M237.88,116.52v-49.29h11.14v49.29h-11.14Z"/>
      <path class="cls-1" d="M257.12,116.52v-49.29h11.14v49.29h-11.14Z"/>
      <path class="cls-1" d="M306.08,114.9c-3.11,1.31-6.19,2.12-9.25,2.43s-5.95.15-8.68-.51c-2.72-.65-5.14-1.77-7.26-3.34-2.12-1.58-3.77-3.58-4.96-6.01s-1.79-5.24-1.79-8.44c0-2.66.44-5.1,1.32-7.33s2.13-4.19,3.75-5.87c1.62-1.69,3.53-2.99,5.74-3.92,2.21-.92,4.61-1.38,7.22-1.38,2.34,0,4.46.38,6.35,1.15,1.89.77,3.53,1.83,4.93,3.21,1.39,1.37,2.52,3,3.38,4.9.85,1.89,1.39,3.96,1.62,6.21.22,2.25.09,4.64-.41,7.16h-22.28c.86,1.71,2.28,2.93,4.29,3.65,2,.72,4.39.95,7.16.68s5.73-.99,8.88-2.16v9.59-.02ZM291.9,90.52c-1.31,0-2.51.36-3.61,1.08-1.1.72-1.95,1.82-2.53,3.31h12.22c-.54-1.53-1.34-2.64-2.4-3.34s-2.29-1.05-3.68-1.05h0Z"/>
    </g>
  </g>
</svg>